<?xml version="1.0" standalone="no"?>
<!DOCTYPE svg PUBLIC "-//W3C//DTD SVG 20010904//EN"
 "http://www.w3.org/TR/2001/REC-SVG-20010904/DTD/svg10.dtd">
<svg version="1.0" xmlns="http://www.w3.org/2000/svg"
 width="220.000000pt" height="124.000000pt" viewBox="0 0 220.000000 124.000000"
 preserveAspectRatio="xMidYMid meet">
<metadata>
Created by potrace 1.16, written by Peter Selinger 2001-2019
</metadata>
<g transform="translate(0.000000,124.000000) scale(0.100000,-0.100000)"
fill="#000000" stroke="none">
<path d="M320 680 l0 -220 40 0 40 0 0 135 c0 74 3 135 8 135 4 0 30 -36 58
-80 l50 -81 48 86 c26 47 52 87 57 91 5 3 9 -56 9 -141 l0 -146 38 3 37 3 0
215 0 215 -40 3 -40 3 -54 -95 c-30 -53 -57 -93 -61 -91 -4 2 -31 45 -59 95
-52 89 -53 90 -92 90 l-39 0 0 -220z"/>
</g>
</svg>
