<?xml version="1.0" encoding="UTF-8"?>
<!DOCTYPE svg PUBLIC "-//W3C//DTD SVG 1.1//EN" "http://www.w3.org/Graphics/SVG/1.1/DTD/svg11.dtd">
<svg xmlns="http://www.w3.org/2000/svg" version="1.1" width="465px" height="301px" style="shape-rendering:geometricPrecision; text-rendering:geometricPrecision; image-rendering:optimizeQuality; fill-rule:evenodd; clip-rule:evenodd" xmlns:xlink="http://www.w3.org/1999/xlink">
<g><path style="opacity:1" fill="#fefeff" d="M -0.5,-0.5 C 154.5,-0.5 309.5,-0.5 464.5,-0.5C 464.5,99.8333 464.5,200.167 464.5,300.5C 309.5,300.5 154.5,300.5 -0.5,300.5C -0.5,200.167 -0.5,99.8333 -0.5,-0.5 Z"/></g>
<g><path style="opacity:1" fill="#f2edff" d="M 138.5,59.5 C 160.503,59.3334 182.503,59.5 204.5,60C 226.109,63.6095 239.276,76.1095 244,97.5C 244.667,132.5 244.667,167.5 244,202.5C 239.024,222.477 226.524,234.643 206.5,239C 183.167,239.667 159.833,239.667 136.5,239C 117.434,234.267 105.267,222.434 100,203.5C 99.3333,167.5 99.3333,131.5 100,95.5C 105.638,75.6917 118.472,63.6917 138.5,59.5 Z"/></g>
<g><path style="opacity:1" fill="#8c53ff" d="M 153.5,134.5 C 153.44,133.957 153.107,133.624 152.5,133.5C 151.501,149.82 151.167,166.153 151.5,182.5C 146.5,182.5 141.5,182.5 136.5,182.5C 136.5,156.167 136.5,129.833 136.5,103.5C 141.511,103.334 146.511,103.501 151.5,104C 158.365,114.701 165.032,125.534 171.5,136.5C 177.959,125.749 184.293,114.915 190.5,104C 196.157,103.501 201.824,103.334 207.5,103.5C 207.5,130.167 207.5,156.833 207.5,183.5C 202.167,183.5 196.833,183.5 191.5,183.5C 191.667,165.83 191.5,148.164 191,130.5C 184.667,141.833 178.333,153.167 172,164.5C 165.572,154.639 159.405,144.639 153.5,134.5 Z"/></g>
<g><path style="opacity:1" fill="#ae86ff" d="M 153.5,134.5 C 152.504,150.658 152.17,166.991 152.5,183.5C 146.974,183.821 141.64,183.488 136.5,182.5C 141.5,182.5 146.5,182.5 151.5,182.5C 151.167,166.153 151.501,149.82 152.5,133.5C 153.107,133.624 153.44,133.957 153.5,134.5 Z"/></g>
</svg>
