<?xml version="1.0" encoding="UTF-8"?>
<!DOCTYPE svg PUBLIC "-//W3C//DTD SVG 1.1//EN" "http://www.w3.org/Graphics/SVG/1.1/DTD/svg11.dtd">
<svg xmlns="http://www.w3.org/2000/svg" version="1.1" width="465px" height="301px" style="shape-rendering:geometricPrecision; text-rendering:geometricPrecision; image-rendering:optimizeQuality; fill-rule:evenodd; clip-rule:evenodd" xmlns:xlink="http://www.w3.org/1999/xlink">
<g><path style="opacity:1" fill="#fefefe" d="M -0.5,-0.5 C 154.5,-0.5 309.5,-0.5 464.5,-0.5C 464.5,99.8333 464.5,200.167 464.5,300.5C 309.5,300.5 154.5,300.5 -0.5,300.5C -0.5,200.167 -0.5,99.8333 -0.5,-0.5 Z"/></g>
<g><path style="opacity:1" fill="#f2edff" d="M 138.5,59.5 C 160.503,59.3334 182.503,59.5 204.5,60C 226.109,63.6095 239.276,76.1095 244,97.5C 244.667,132.5 244.667,167.5 244,202.5C 239.024,222.477 226.524,234.643 206.5,239C 183.167,239.667 159.833,239.667 136.5,239C 117.434,234.267 105.267,222.434 100,203.5C 99.3333,167.5 99.3333,131.5 100,95.5C 105.638,75.6917 118.472,63.6917 138.5,59.5 Z"/></g>
<g><path style="opacity:1" fill="#8c53ff" d="M 153.5,134.5 C 153.44,133.957 153.107,133.624 152.5,133.5C 151.501,149.82 151.167,166.153 151.5,182.5C 146.5,182.5 141.5,182.5 136.5,182.5C 136.5,156.167 136.5,129.833 136.5,103.5C 141.511,103.334 146.511,103.501 151.5,104C 158.365,114.701 165.032,125.534 171.5,136.5C 177.959,125.749 184.293,114.915 190.5,104C 196.157,103.501 201.824,103.334 207.5,103.5C 207.5,130.167 207.5,156.833 207.5,183.5C 202.167,183.5 196.833,183.5 191.5,183.5C 191.667,165.83 191.5,148.164 191,130.5C 184.667,141.833 178.333,153.167 172,164.5C 165.572,154.639 159.405,144.639 153.5,134.5 Z"/></g>
<g><path style="opacity:1" fill="#060606" d="M 427.5,122.5 C 430.833,122.5 434.167,122.5 437.5,122.5C 437.5,139.833 437.5,157.167 437.5,174.5C 434.167,174.5 430.833,174.5 427.5,174.5C 427.5,157.167 427.5,139.833 427.5,122.5 Z"/></g>
<g><path style="opacity:1" fill="#060606" d="M 285.5,140.5 C 285.291,139.078 284.791,137.745 284,136.5C 283.199,139.367 283.366,142.034 284.5,144.5C 284.5,154.5 284.5,164.5 284.5,174.5C 281.5,174.5 278.5,174.5 275.5,174.5C 275.5,158.167 275.5,141.833 275.5,125.5C 280.214,125.173 284.88,125.507 289.5,126.5C 293.427,138.448 297.26,150.448 301,162.5C 305.399,150.637 309.399,138.637 313,126.5C 317.737,125.531 322.57,125.197 327.5,125.5C 327.5,141.833 327.5,158.167 327.5,174.5C 324.5,174.5 321.5,174.5 318.5,174.5C 318.667,162.162 318.5,149.829 318,137.5C 313.735,149.462 309.568,161.462 305.5,173.5C 302.232,174.487 298.898,174.82 295.5,174.5C 292.474,163.06 289.141,151.727 285.5,140.5 Z"/></g>
<g><path style="opacity:1" fill="#ae86ff" d="M 153.5,134.5 C 152.504,150.658 152.17,166.991 152.5,183.5C 146.974,183.821 141.64,183.488 136.5,182.5C 141.5,182.5 146.5,182.5 151.5,182.5C 151.167,166.153 151.501,149.82 152.5,133.5C 153.107,133.624 153.44,133.957 153.5,134.5 Z"/></g>
<g><path style="opacity:1" fill="#080808" d="M 347.5,136.5 C 354.139,135.828 360.472,136.828 366.5,139.5C 367.333,140.5 368.167,141.5 369,142.5C 370.453,153.063 370.953,163.73 370.5,174.5C 368.143,174.663 365.81,174.497 363.5,174C 362.929,172.795 362.262,171.628 361.5,170.5C 354.164,176.67 346.664,177.004 339,171.5C 334.694,161.667 337.527,155.167 347.5,152C 351.821,151.501 356.154,151.334 360.5,151.5C 360.896,148.956 360.229,146.789 358.5,145C 353.64,144.032 348.974,144.532 344.5,146.5C 339.876,141.377 340.876,138.043 347.5,136.5 Z"/></g>
<g><path style="opacity:1" fill="#020202" d="M 405.5,157.5 C 406.491,151.021 406.824,144.354 406.5,137.5C 409.5,137.5 412.5,137.5 415.5,137.5C 415.5,149.833 415.5,162.167 415.5,174.5C 412.721,174.721 410.054,174.388 407.5,173.5C 407.719,172.325 407.386,171.325 406.5,170.5C 399.132,176.592 391.632,176.926 384,171.5C 383.138,169.913 382.471,168.246 382,166.5C 381.5,156.839 381.334,147.172 381.5,137.5C 384.833,137.5 388.167,137.5 391.5,137.5C 391.083,146.915 391.583,156.248 393,165.5C 400.958,169.095 405.124,166.428 405.5,157.5 Z"/></g>
<g><path style="opacity:1" fill="#696969" d="M 407.5,173.5 C 410.054,174.388 412.721,174.721 415.5,174.5C 415.5,162.167 415.5,149.833 415.5,137.5C 412.5,137.5 409.5,137.5 406.5,137.5C 406.824,144.354 406.491,151.021 405.5,157.5C 405.5,150.5 405.5,143.5 405.5,136.5C 409.167,136.5 412.833,136.5 416.5,136.5C 416.5,149.5 416.5,162.5 416.5,175.5C 412.988,176.055 409.988,175.388 407.5,173.5 Z"/></g>
<g><path style="opacity:1" fill="#808080" d="M 285.5,140.5 C 284.566,141.568 284.232,142.901 284.5,144.5C 283.366,142.034 283.199,139.367 284,136.5C 284.791,137.745 285.291,139.078 285.5,140.5 Z"/></g>
<g><path style="opacity:1" fill="#ececec" d="M 351.5,157.5 C 354.5,157.5 357.5,157.5 360.5,157.5C 360.954,166.56 356.954,169.727 348.5,167C 346.803,162.987 347.803,159.821 351.5,157.5 Z"/></g>
</svg>
